<svg width="30" height="30" viewBox="0 0 30 30" fill="none" xmlns="http://www.w3.org/2000/svg">
<path d="M27.4994 17.0788H17.0827V27.4954C17.0827 28.048 16.8632 28.5779 16.4725 28.9686C16.0818 29.3593 15.5519 29.5788 14.9993 29.5788C14.4468 29.5788 13.9169 29.3593 13.5262 28.9686C13.1355 28.5779 12.916 28.048 12.916 27.4954V17.0788H2.49935C1.94681 17.0788 1.41691 16.8593 1.02621 16.4686C0.635509 16.0779 0.416016 15.548 0.416016 14.9954C0.416016 14.4429 0.635509 13.913 1.02621 13.5223C1.41691 13.1316 1.94681 12.9121 2.49935 12.9121H12.916V2.49544C12.916 1.94291 13.1355 1.413 13.5262 1.0223C13.9169 0.631602 14.4468 0.412109 14.9993 0.412109C15.5519 0.412109 16.0818 0.631602 16.4725 1.0223C16.8632 1.413 17.0827 1.94291 17.0827 2.49544V12.9121H27.4994C28.0519 12.9121 28.5818 13.1316 28.9725 13.5223C29.3632 13.913 29.5827 14.4429 29.5827 14.9954C29.5827 15.548 29.3632 16.0779 28.9725 16.4686C28.5818 16.8593 28.0519 17.0788 27.4994 17.0788Z" fill="white"/>
</svg>
