<svg width="27" height="27" viewBox="0 0 27 27" fill="none" xmlns="http://www.w3.org/2000/svg">
<g clip-path="url(#clip0_2126_1111)">
<path d="M5.5984 3.31147C5.5984 3.31147 5.76504 2.41077 6.09622 1.88976C6.42739 1.36874 6.97372 0.776005 7.13825 0.847724C7.30489 0.919443 7.46942 1.58179 8.08747 2.91069C8.70551 4.2396 9.74754 6.0389 9.72223 7.22436C9.69692 8.40983 9.24762 9.00257 9.24762 9.00257C9.24762 9.00257 7.97145 11.1098 5.55622 10.9137C3.5945 10.7555 2.71911 10.0994 1.64332 9.5278C1.19403 9.28944 0.641372 9.26413 0.594965 9.02577C0.548559 8.78952 0.826997 8.40351 1.04637 8.14827C1.41551 7.71796 2.19809 7.4564 2.50817 6.90163C2.81825 6.34686 2.82036 5.50522 3.32239 4.79858C4.25473 3.49288 5.5984 3.31147 5.5984 3.31147Z" fill="#FE7C84"/>
<path d="M7.00989 2.8854C6.81794 2.8643 6.55849 3.37688 6.59646 3.73758C6.63442 4.09829 6.9445 4.67415 7.29466 5.41665C7.7081 6.29415 8.01606 7.5218 8.4063 7.4311C8.79442 7.3404 8.48435 6.12751 8.14895 5.19727C7.80935 4.26704 7.25458 2.91071 7.00989 2.8854ZM6.15349 7.39524C6.46778 7.24337 6.32224 6.55571 6.07544 5.71618C5.82864 4.87665 5.67466 4.47797 5.19794 4.38516C4.73388 4.29446 4.41114 4.56657 4.16435 4.91461C3.91755 5.26266 3.73825 5.6761 3.75091 5.90813C3.76356 6.14016 3.82895 6.29626 4.177 6.43758C4.38583 6.52196 4.70435 6.62321 5.01653 6.82571C5.37724 7.05774 5.80333 7.56188 6.15349 7.39524ZM2.3081 7.81712C1.9706 7.81712 1.40317 8.25586 1.50653 8.5786C1.62255 8.94141 2.40724 8.92032 3.33958 9.10805C4.81192 9.40547 5.70841 9.74508 5.84552 9.31477C5.93622 9.03001 4.74864 8.55329 4.02513 8.30649C3.48302 8.12508 2.72153 7.81712 2.3081 7.81712Z" fill="white"/>
<path d="M17.2401 17.2232C16.2171 18.3137 15.6855 19.862 16.6917 21.7056C17.4785 23.1442 18.5163 23.6504 19.1555 24.6735C19.7946 25.6965 19.7187 26.3209 19.8832 26.3061C20.0456 26.2914 20.5666 25.7725 20.8324 25.2071C21.1003 24.6439 20.9948 24.1377 21.2627 23.8128C21.5306 23.488 22.4208 23.4416 22.9397 22.8193C23.4586 22.1971 23.3848 21.6761 23.8594 21.1867C24.334 20.6973 25.0322 20.5475 25.5068 19.9991C25.9814 19.4507 26.4117 18.7525 26.3083 18.59C26.205 18.4276 25.8337 18.5162 24.7348 18.1893C23.6358 17.8623 21.4251 16.4385 19.7777 16.3204C18.6197 16.236 17.9088 16.5123 17.2401 17.2232Z" fill="#FE7C84"/>
<path d="M18.9299 17.5967C18.759 17.8984 20.4634 18.2717 21.3936 18.8624C22.3239 19.453 22.8428 20.012 23.1971 20.012C23.5515 20.012 24.4649 19.4973 24.391 19.1281C24.3172 18.759 23.7182 18.7696 23.4587 18.6915C23.1655 18.6008 21.8851 17.9891 21.4443 17.795C20.8072 17.5103 19.2041 17.1137 18.9299 17.5967ZM18.8392 18.9594C18.6662 19.1535 19.1661 19.6914 20.0394 20.6237C20.9865 21.6362 21.4379 21.9821 21.8514 21.5708C22.2268 21.1953 21.9168 20.7545 21.1489 20.1765C20.59 19.7546 19.0438 18.7316 18.8392 18.9594ZM18.5122 20.5794C18.238 20.6785 18.7738 22.0243 18.9531 22.6023C19.1324 23.1824 19.4762 23.908 19.8348 23.908C20.1934 23.908 20.5372 23.4671 20.4803 23.0178C20.4233 22.5685 19.6787 21.7796 19.4762 21.5328C19.1893 21.1827 18.6915 20.514 18.5122 20.5794Z" fill="white"/>
<path d="M8.24578 9.4541C6.88102 10.8716 6.42539 12.3186 6.57938 14.2993C6.77977 16.8454 9.5557 20.0706 12.9012 19.9968C15.6012 19.9377 17.1389 18.5835 17.8392 17.5984C18.4847 16.6914 19.377 15.2844 19.1512 13.1434C18.8813 10.5742 16.2066 7.49871 12.9813 7.47972C10.4037 7.46285 9.29414 8.36566 8.24578 9.4541Z" fill="#FF5960"/>
<path d="M8.61039 11.3905C7.67805 13.4345 6.56641 14.1011 6.56641 14.1011C6.56641 14.1011 6.5875 14.5187 6.67188 14.9047C6.77102 15.3583 6.92922 15.7169 6.92922 15.7169C6.92922 15.7169 8.12102 14.8372 8.85508 13.5611C9.65242 12.1752 10.1629 11.0024 10.3633 9.95615C10.5637 8.9099 10.6523 7.80037 10.6523 7.80037C10.6523 7.80037 10.3 7.91006 9.87813 8.12943C9.54274 8.30451 9.37398 8.44373 9.37398 8.44373C9.37398 8.44373 9.38875 9.68615 8.61039 11.3905ZM12.0951 7.5156C12.0951 7.5156 12.2533 8.37834 11.8483 10.0258C11.6521 10.8231 11.3294 11.8694 10.7852 13.0253C10.2979 14.0631 9.82961 14.8035 9.4225 15.4173C8.46695 16.8622 7.80883 17.2715 7.80883 17.2715C7.80883 17.2715 8.02188 17.5668 8.23914 17.803C8.45641 18.0393 8.73906 18.2966 8.73906 18.2966C8.73906 18.2966 9.85703 17.687 11.3357 15.0376C12.8144 12.3883 13.2109 10.7303 13.3713 9.59545C13.5337 8.4606 13.5063 7.50927 13.5063 7.50927C13.5063 7.50927 13.1287 7.47552 12.8038 7.47763C12.4009 7.47974 12.0951 7.5156 12.0951 7.5156ZM14.9828 7.88685C14.9828 7.88685 14.8879 11.2302 13.4071 14.1517C12.0297 16.8686 9.90555 19.1678 9.90555 19.1678C9.90555 19.1678 10.2009 19.3597 10.5932 19.5306C11.0404 19.7247 11.4243 19.8133 11.4243 19.8133C11.4243 19.8133 11.9073 19.3703 12.6224 18.3472C13.2215 17.4866 14.0884 16.2695 14.8605 14.5082C15.4912 13.0717 15.7633 11.9769 15.9784 11.0446C16.3223 9.55748 16.2695 8.59349 16.2695 8.59349C16.2695 8.59349 16.0354 8.40365 15.6473 8.19904C15.2697 7.99654 14.9828 7.88685 14.9828 7.88685ZM17.571 9.77263C17.571 9.77263 17.4888 12.0465 16.027 15.3498C15.4595 16.6302 14.9638 17.4465 14.4829 18.1469C13.5948 19.4378 12.9009 19.9968 12.9009 19.9968C12.9009 19.9968 13.4894 19.9778 13.9555 19.904C14.4723 19.8217 14.8773 19.6888 14.8773 19.6888C14.8773 19.6888 16.0523 18.4907 17.1681 16.0248C18.2397 13.6581 18.5983 11.3104 18.5983 11.3104C18.5983 11.3104 18.4401 10.9391 18.1405 10.5046C17.9085 10.1671 17.571 9.77263 17.571 9.77263Z" fill="#FE7C84"/>
<path d="M11.7496 8.84256C10.6021 9.09357 9.43987 9.89935 9.14878 10.6271C8.85347 11.3654 9.36182 11.7324 9.86597 11.5784C10.3701 11.4223 11.0493 10.6946 12.1357 10.5005C13.222 10.3065 14.1438 10.414 14.5994 10.5385C15.055 10.6629 15.4284 10.6271 15.5233 10.2769C15.614 9.94365 15.4326 9.49435 14.6669 9.10201C13.8232 8.6717 12.5934 8.65904 11.7496 8.84256Z" fill="white"/>
</g>
<defs>
<clipPath id="clip0_2126_1111">
<rect width="27" height="27" fill="white"/>
</clipPath>
</defs>
</svg>
