<svg width="272" height="127" viewBox="0 0 272 127" fill="none" xmlns="http://www.w3.org/2000/svg">
<g filter="url(#filter0_d_2478_813)">
<rect x="4" y="4" width="260" height="115" rx="20" fill="white"/>
<rect x="4.5" y="4.5" width="259" height="114" rx="19.5" stroke="black" stroke-opacity="0.11"/>
</g>
<rect x="167" y="8" width="2" height="8" rx="1" fill="#D9D9D9"/>
<rect x="167" y="18" width="2" height="8" rx="1" fill="#D9D9D9"/>
<rect x="167" y="28" width="2" height="8" rx="1" fill="#D9D9D9"/>
<rect x="167" y="38" width="2" height="8" rx="1" fill="#D9D9D9"/>
<rect x="167" y="48" width="2" height="8" rx="1" fill="#D9D9D9"/>
<rect x="167" y="58" width="2" height="8" rx="1" fill="#D9D9D9"/>
<rect x="167" y="68" width="2" height="8" rx="1" fill="#D9D9D9"/>
<rect x="167" y="78" width="2" height="8" rx="1" fill="#D9D9D9"/>
<rect x="167" y="88" width="2" height="8" rx="1" fill="#D9D9D9"/>
<rect x="167" y="98" width="2" height="8" rx="1" fill="#D9D9D9"/>
<rect x="167" y="108" width="2" height="8" rx="1" fill="#D9D9D9"/>
<defs>
<filter id="filter0_d_2478_813" x="0" y="0" width="272" height="127" filterUnits="userSpaceOnUse" color-interpolation-filters="sRGB">
<feFlood flood-opacity="0" result="BackgroundImageFix"/>
<feColorMatrix in="SourceAlpha" type="matrix" values="0 0 0 0 0 0 0 0 0 0 0 0 0 0 0 0 0 0 127 0" result="hardAlpha"/>
<feOffset dx="2" dy="2"/>
<feGaussianBlur stdDeviation="3"/>
<feComposite in2="hardAlpha" operator="out"/>
<feColorMatrix type="matrix" values="0 0 0 0 0 0 0 0 0 0 0 0 0 0 0 0 0 0 0.14 0"/>
<feBlend mode="normal" in2="BackgroundImageFix" result="effect1_dropShadow_2478_813"/>
<feBlend mode="normal" in="SourceGraphic" in2="effect1_dropShadow_2478_813" result="shape"/>
</filter>
</defs>
</svg>
