<svg width="128" height="100" viewBox="0 0 128 100" fill="none" xmlns="http://www.w3.org/2000/svg">
<path d="M91.0803 29.79L105.43 74.73L69.0703 70.02L91.0803 29.79Z" fill="#F79329"/>
<path d="M105.43 75.9104C105.38 75.9104 105.33 75.9103 105.28 75.9003L68.91 71.1903C68.52 71.1404 68.19 70.9003 68.01 70.5504C67.83 70.2004 67.84 69.7904 68.02 69.4504L90.04 29.2204C90.27 28.8104 90.73 28.5704 91.19 28.6104C91.66 28.6504 92.06 28.9703 92.2 29.4203L106.44 74.0403C106.58 74.2303 106.66 74.4704 106.66 74.7204C106.66 75.3704 106.13 75.9003 105.48 75.9003C105.48 75.9103 105.45 75.9104 105.43 75.9104ZM70.92 69.0704L103.74 73.3204L90.8 32.7704L70.92 69.0704ZM39.71 14.3204C39.71 15.7684 39.1348 17.1572 38.1108 18.1812C37.0869 19.2051 35.6981 19.7803 34.25 19.7803C31.24 19.7803 28.79 17.3304 28.79 14.3204C28.79 11.3004 31.23 8.86035 34.25 8.86035C37.27 8.86035 39.71 11.3004 39.71 14.3204Z" fill="#F79329"/>
<path d="M34.2504 20.9499C32.4901 20.9473 30.8028 20.2469 29.5581 19.0022C28.3134 17.7575 27.613 16.0701 27.6104 14.3099C27.613 12.5497 28.3134 10.8623 29.5581 9.61765C30.8028 8.37299 32.4901 7.67257 34.2504 7.66992C36.0106 7.67257 37.698 8.37299 38.9426 9.61765C40.1873 10.8623 40.8877 12.5497 40.8904 14.3099C40.8877 16.0701 40.1873 17.7575 38.9426 19.0022C37.698 20.2469 36.0106 20.9473 34.2504 20.9499ZM34.2504 10.0399C31.8904 10.0399 29.9704 11.9599 29.9704 14.3199C29.9704 16.6799 31.8904 18.5999 34.2504 18.5999C36.6104 18.5999 38.5404 16.6799 38.5404 14.3199C38.5404 11.9599 36.6104 10.0399 34.2504 10.0399ZM93.1004 8.85992C96.1104 9.03992 98.4103 11.6299 98.2303 14.6399C98.0603 17.6499 95.4604 19.9399 92.4604 19.7699C91.7443 19.7289 91.0434 19.5469 90.3978 19.2345C89.7522 18.9221 89.1746 18.4854 88.6981 17.9494C88.2215 17.4134 87.8554 16.7887 87.6207 16.1109C87.386 15.4332 87.2873 14.7158 87.3303 13.9999C87.5103 10.9799 90.0904 8.67992 93.1004 8.85992Z" fill="#F79329"/>
<path d="M92.7803 20.9497L92.3904 20.9397C90.6204 20.8397 88.9904 20.0497 87.8204 18.7297C87.2393 18.0792 86.7926 17.3202 86.506 16.4965C86.2194 15.6727 86.0985 14.8004 86.1503 13.9297C86.2515 12.2394 86.9939 10.6515 88.226 9.48998C89.4581 8.32848 91.0871 7.681 92.7803 7.67969L93.1703 7.68969C96.8304 7.90969 99.6304 11.0697 99.4104 14.7197C99.3064 16.4072 98.5625 17.9914 97.3305 19.1491C96.0984 20.3069 94.471 20.9508 92.7803 20.9497ZM93.0103 10.0297C90.5103 10.0297 88.6403 11.7997 88.5103 14.0597C88.4403 15.1997 88.8204 16.2997 89.5804 17.1597C90.3404 18.0197 91.3803 18.5197 92.5303 18.5897L92.7803 18.5997C95.0404 18.5997 96.9204 16.8297 97.0504 14.5697C97.1904 12.2097 95.3804 10.1797 93.0204 10.0297H93.0103ZM35.9504 29.7897L21.6104 74.7297L57.9704 70.0197L35.9504 29.7897Z" fill="#F79329"/>
<path d="M21.6103 75.9096C21.2703 75.9096 20.9303 75.7596 20.7003 75.4896C20.4403 75.1796 20.3603 74.7596 20.4803 74.3796L34.8203 29.4396C34.9603 28.9896 35.3603 28.6696 35.8303 28.6296C36.3403 28.5796 36.7503 28.8196 36.9803 29.2396L59.0003 69.4696C59.1803 69.8096 59.1903 70.2196 59.0103 70.5696C58.8403 70.9196 58.5003 71.1496 58.1103 71.2096L21.7503 75.9196C21.7103 75.9096 21.6603 75.9096 21.6103 75.9096ZM36.2403 32.7696L23.2903 73.3296L56.1103 69.0796L36.2403 32.7696Z" fill="#F79329"/>
<path d="M91.0803 29.79L105.43 74.73L69.0703 70.02L91.0803 29.79Z" fill="#F79329"/>
<path d="M105.43 75.9104C105.38 75.9104 105.33 75.9103 105.28 75.9003L68.91 71.1903C68.52 71.1404 68.19 70.9003 68.01 70.5504C67.83 70.2004 67.84 69.7904 68.02 69.4504L90.04 29.2204C90.27 28.8104 90.73 28.5704 91.19 28.6104C91.66 28.6504 92.06 28.9703 92.2 29.4203L106.44 74.0403C106.58 74.2303 106.66 74.4704 106.66 74.7204C106.66 75.3704 106.13 75.9003 105.48 75.9003C105.48 75.9103 105.45 75.9104 105.43 75.9104ZM70.92 69.0704L103.74 73.3204L90.8 32.7704L70.92 69.0704ZM39.71 14.3204C39.71 15.7684 39.1348 17.1572 38.1108 18.1812C37.0869 19.2051 35.6981 19.7803 34.25 19.7803C31.24 19.7803 28.79 17.3304 28.79 14.3204C28.79 11.3004 31.23 8.86035 34.25 8.86035C37.27 8.86035 39.71 11.3004 39.71 14.3204Z" fill="#F79329"/>
<path d="M34.2504 20.9499C32.4901 20.9473 30.8028 20.2469 29.5581 19.0022C28.3134 17.7575 27.613 16.0701 27.6104 14.3099C27.613 12.5497 28.3134 10.8623 29.5581 9.61765C30.8028 8.37299 32.4901 7.67257 34.2504 7.66992C36.0106 7.67257 37.698 8.37299 38.9426 9.61765C40.1873 10.8623 40.8877 12.5497 40.8904 14.3099C40.8877 16.0701 40.1873 17.7575 38.9426 19.0022C37.698 20.2469 36.0106 20.9473 34.2504 20.9499ZM34.2504 10.0399C31.8904 10.0399 29.9704 11.9599 29.9704 14.3199C29.9704 16.6799 31.8904 18.5999 34.2504 18.5999C36.6104 18.5999 38.5404 16.6799 38.5404 14.3199C38.5404 11.9599 36.6104 10.0399 34.2504 10.0399ZM93.1004 8.85992C96.1104 9.03992 98.4103 11.6299 98.2303 14.6399C98.0603 17.6499 95.4604 19.9399 92.4604 19.7699C91.7443 19.7289 91.0434 19.5469 90.3978 19.2345C89.7522 18.9221 89.1746 18.4854 88.6981 17.9494C88.2215 17.4134 87.8554 16.7887 87.6207 16.1109C87.386 15.4332 87.2873 14.7158 87.3303 13.9999C87.5103 10.9799 90.0904 8.67992 93.1004 8.85992Z" fill="#F79329"/>
<path d="M92.7803 20.9497L92.3904 20.9397C90.6204 20.8397 88.9904 20.0497 87.8204 18.7297C87.2393 18.0792 86.7926 17.3202 86.506 16.4965C86.2194 15.6727 86.0985 14.8004 86.1503 13.9297C86.2515 12.2394 86.9939 10.6515 88.226 9.48998C89.4581 8.32848 91.0871 7.681 92.7803 7.67969L93.1703 7.68969C96.8304 7.90969 99.6304 11.0697 99.4104 14.7197C99.3064 16.4072 98.5625 17.9914 97.3305 19.1491C96.0984 20.3069 94.471 20.9508 92.7803 20.9497ZM93.0103 10.0297C90.5103 10.0297 88.6403 11.7997 88.5103 14.0597C88.4403 15.1997 88.8204 16.2997 89.5804 17.1597C90.3404 18.0197 91.3803 18.5197 92.5303 18.5897L92.7803 18.5997C95.0404 18.5997 96.9204 16.8297 97.0504 14.5697C97.1904 12.2097 95.3804 10.1797 93.0204 10.0297H93.0103ZM35.9504 29.7897L21.6104 74.7297L57.9704 70.0197L35.9504 29.7897Z" fill="#F79329"/>
<path d="M21.6103 75.9096C21.2703 75.9096 20.9303 75.7596 20.7003 75.4896C20.4403 75.1796 20.3603 74.7596 20.4803 74.3796L34.8203 29.4396C34.9603 28.9896 35.3603 28.6696 35.8303 28.6296C36.3403 28.5796 36.7503 28.8196 36.9803 29.2396L59.0003 69.4696C59.1803 69.8096 59.1903 70.2196 59.0103 70.5696C58.8403 70.9196 58.5003 71.1496 58.1103 71.2096L21.7503 75.9196C21.7103 75.9096 21.6603 75.9096 21.6103 75.9096ZM36.2403 32.7696L23.2903 73.3296L56.1103 69.0796L36.2403 32.7696Z" fill="#F79329"/>
<path d="M71.69 8.17C71.69 12.68 68.03 16.34 63.52 16.34C59.01 16.34 55.34 12.68 55.34 8.17C55.34 3.65 59 0 63.52 0C68.04 0 71.69 3.65 71.69 8.17ZM12.97 14.32C12.97 17.9 10.07 20.8 6.48 20.8C2.9 20.8 0 17.9 0 14.32C0 10.73 2.9 7.83 6.48 7.83C10.07 7.83 12.97 10.73 12.97 14.32ZM114.06 14.32C114.06 17.9 116.96 20.8 120.55 20.8C124.13 20.8 127.04 17.9 127.04 14.32C127.04 12.5987 126.356 10.948 125.139 9.73088C123.922 8.51377 122.271 7.83 120.55 7.83C118.829 7.83 117.178 8.51377 115.961 9.73088C114.744 10.948 114.06 12.5987 114.06 14.32Z" fill="#FCC21B"/>
<path d="M71.69 8.17C71.69 12.68 68.03 16.34 63.52 16.34C59.01 16.34 55.34 12.68 55.34 8.17C55.34 3.65 59 0 63.52 0C68.04 0 71.69 3.65 71.69 8.17ZM12.97 14.32C12.97 17.9 10.07 20.8 6.48 20.8C2.9 20.8 0 17.9 0 14.32C0 10.73 2.9 7.83 6.48 7.83C10.07 7.83 12.97 10.73 12.97 14.32ZM114.06 14.32C114.06 17.9 116.96 20.8 120.55 20.8C124.13 20.8 127.04 17.9 127.04 14.32C127.04 12.5987 126.356 10.948 125.139 9.73088C123.922 8.51377 122.271 7.83 120.55 7.83C118.829 7.83 117.178 8.51377 115.961 9.73088C114.744 10.948 114.06 12.5987 114.06 14.32Z" fill="#FCC21B"/>
<path d="M119.019 32.8404C118.806 32.7456 118.57 32.716 118.34 32.7551C118.111 32.7943 117.898 32.9005 117.729 33.0604L86.7687 62.1203L64.6787 29.1304C64.4587 28.8004 64.0987 28.6104 63.6987 28.6104C63.3087 28.6104 62.9387 28.8003 62.7187 29.1203L40.5287 62.1203L9.57866 33.0504C9.40934 32.8905 9.1965 32.7843 8.96695 32.7451C8.7374 32.706 8.5014 32.7356 8.28866 32.8303C7.85866 33.0203 7.57866 33.4604 7.59866 33.9304L8.86866 81.4504C8.86866 91.7803 32.9287 99.8804 63.6487 99.8804C94.3687 99.8804 118.429 91.7803 118.429 81.4804L119.699 33.9304C119.719 33.4704 119.449 33.0304 119.019 32.8404Z" fill="#FCC21B"/>
<mask id="mask0_2467_801" style="mask-type:luminance" maskUnits="userSpaceOnUse" x="8" y="28" width="113" height="72">
<path d="M120.019 32.8404C119.806 32.7456 119.57 32.716 119.34 32.7551C119.111 32.7943 118.898 32.9005 118.729 33.0604L87.7687 62.1203L65.6787 29.1304C65.4587 28.8004 65.0987 28.6104 64.6987 28.6104C64.3087 28.6104 63.9387 28.8003 63.7187 29.1203L41.5287 62.1203L10.5787 33.0504C10.4093 32.8905 10.1965 32.7843 9.96695 32.7451C9.7374 32.706 9.5014 32.7356 9.28866 32.8303C8.85866 33.0203 8.57866 33.4604 8.59866 33.9304L9.86866 81.4504C9.86866 91.7803 33.9287 99.8804 64.6487 99.8804C95.3687 99.8804 119.429 91.7803 119.429 81.4804L120.699 33.9304C120.719 33.4704 120.449 33.0304 120.019 32.8404Z" fill="white"/>
</mask>
<g mask="url(#mask0_2467_801)">
<path d="M120.429 57.4708L120.439 57.4808L119.849 76.3308H119.839C115.639 76.2008 112.379 71.8808 112.539 66.6708C112.699 61.4508 116.229 57.3408 120.429 57.4708ZM8.88891 57.4708L8.87891 57.4808L9.45891 76.3308H9.47891C13.6689 76.2008 16.9389 71.8808 16.7689 66.6708C16.6089 61.4508 13.0789 57.3408 8.88891 57.4708Z" fill="#D7598B"/>
</g>
<path d="M71.69 8.17C71.69 12.68 68.03 16.34 63.52 16.34C59.01 16.34 55.34 12.68 55.34 8.17C55.34 3.65 59 0 63.52 0C68.04 0 71.69 3.65 71.69 8.17ZM12.97 14.32C12.97 17.9 10.07 20.8 6.48 20.8C2.9 20.8 0 17.9 0 14.32C0 10.73 2.9 7.83 6.48 7.83C10.07 7.83 12.97 10.73 12.97 14.32ZM114.06 14.32C114.06 17.9 116.96 20.8 120.55 20.8C124.13 20.8 127.04 17.9 127.04 14.32C127.04 12.5987 126.356 10.948 125.139 9.73088C123.922 8.51377 122.271 7.83 120.55 7.83C118.829 7.83 117.178 8.51377 115.961 9.73088C114.744 10.948 114.06 12.5987 114.06 14.32Z" fill="#FCC21B"/>
<mask id="mask1_2467_801" style="mask-type:luminance" maskUnits="userSpaceOnUse" x="8" y="28" width="113" height="72">
<path d="M120.019 32.8404C119.806 32.7456 119.57 32.716 119.34 32.7551C119.111 32.7943 118.898 32.9005 118.729 33.0604L87.7687 62.1203L65.6787 29.1304C65.4587 28.8004 65.0987 28.6104 64.6987 28.6104C64.3087 28.6104 63.9387 28.8003 63.7187 29.1203L41.5287 62.1203L10.5787 33.0504C10.4093 32.8905 10.1965 32.7843 9.96695 32.7451C9.7374 32.706 9.5014 32.7356 9.28866 32.8303C8.85866 33.0203 8.57866 33.4604 8.59866 33.9304L9.86866 81.4504C9.86866 91.7803 33.9287 99.8804 64.6487 99.8804C95.3687 99.8804 119.429 91.7803 119.429 81.4804L120.699 33.9304C120.719 33.4704 120.449 33.0304 120.019 32.8404Z" fill="white"/>
</mask>
<g mask="url(#mask1_2467_801)">
<path d="M120.429 57.4708L120.439 57.4808L119.849 76.3308H119.839C115.639 76.2008 112.379 71.8808 112.539 66.6708C112.699 61.4508 116.229 57.3408 120.429 57.4708ZM8.88891 57.4708L8.87891 57.4808L9.45891 76.3308H9.47891C13.6689 76.2008 16.9389 71.8808 16.7689 66.6708C16.6089 61.4508 13.0789 57.3408 8.88891 57.4708Z" fill="#D7598B"/>
</g>
<path d="M73.3202 75.9596C73.3202 81.5396 69.4402 86.0696 64.6502 86.0696C59.8702 86.0696 55.9902 81.5396 55.9902 75.9596C55.9902 70.3696 59.8702 65.8496 64.6502 65.8496C69.4402 65.8396 73.3202 70.3696 73.3202 75.9596Z" fill="#D7598B"/>
<path d="M90.419 81.55C90.289 84.25 88.299 86.34 85.979 86.23C83.669 86.12 81.899 83.83 82.039 81.14C82.179 78.43 84.169 76.34 86.479 76.46C88.789 76.56 90.549 78.85 90.419 81.55Z" fill="#ED6C30"/>
<path d="M107.749 78.5905C107.89 75.8935 106.126 73.6092 103.809 73.4883C101.493 73.3674 99.501 75.4558 99.3603 78.1528C99.2196 80.8498 100.983 83.1341 103.3 83.255C105.616 83.3759 107.608 81.2875 107.749 78.5905Z" fill="#ED6C30"/>
<path d="M38.8896 81.55C39.0196 84.25 41.0096 86.34 43.3296 86.23C45.6396 86.12 47.4096 83.83 47.2696 81.14C47.1396 78.43 45.1496 76.34 42.8396 76.46C40.5196 76.56 38.7496 78.85 38.8896 81.55Z" fill="#ED6C30"/>
<path d="M26.0045 83.2437C28.3154 83.1231 30.0747 80.839 29.934 78.142C29.7932 75.445 27.8058 73.3564 25.4949 73.477C23.1839 73.5976 21.4246 75.8817 21.5654 78.5787C21.7061 81.2757 23.6936 83.3643 26.0045 83.2437Z" fill="#ED6C30"/>
</svg>
