<svg width="130" height="130" viewBox="0 0 130 130" fill="none" xmlns="http://www.w3.org/2000/svg">
<rect width="130" height="130" rx="65" fill="#C4C4C4"/>
<path d="M88.75 44.2188H80.203L75.9844 37.8864C75.8214 37.6422 75.6007 37.442 75.3417 37.3037C75.0827 37.1655 74.7936 37.0933 74.5 37.0938H55.5C55.2064 37.0933 54.9173 37.1655 54.6583 37.3037C54.3993 37.442 54.1786 37.6422 54.0156 37.8864L49.7941 44.2188H41.25C39.5178 44.2188 37.8566 44.9069 36.6317 46.1317C35.4069 47.3566 34.7188 49.0178 34.7188 50.75V84C34.7188 85.7322 35.4069 87.3934 36.6317 88.6183C37.8566 89.8431 39.5178 90.5312 41.25 90.5312H88.75C90.4822 90.5312 92.1434 89.8431 93.3683 88.6183C94.5931 87.3934 95.2812 85.7322 95.2812 84V50.75C95.2812 49.0178 94.5931 47.3566 93.3683 46.1317C92.1434 44.9069 90.4822 44.2188 88.75 44.2188ZM91.7188 84C91.7188 84.7874 91.406 85.5425 90.8492 86.0992C90.2925 86.656 89.5374 86.9688 88.75 86.9688H41.25C40.4626 86.9688 39.7075 86.656 39.1508 86.0992C38.594 85.5425 38.2812 84.7874 38.2812 84V50.75C38.2812 49.9626 38.594 49.2075 39.1508 48.6508C39.7075 48.094 40.4626 47.7813 41.25 47.7813H50.75C51.0436 47.7817 51.3327 47.7095 51.5917 47.5713C51.8507 47.433 52.0714 47.2328 52.2344 46.9886L56.453 40.6563H73.5441L77.7656 46.9886C77.9286 47.2328 78.1493 47.433 78.4083 47.5713C78.6673 47.7095 78.9564 47.7817 79.25 47.7813H88.75C89.5374 47.7813 90.2925 48.094 90.8492 48.6508C91.406 49.2075 91.7188 49.9626 91.7188 50.75V84ZM65 53.7188C62.5339 53.7188 60.1232 54.45 58.0727 55.8201C56.0223 57.1902 54.4241 59.1376 53.4804 61.4159C52.5366 63.6943 52.2897 66.2013 52.7708 68.62C53.2519 71.0387 54.4395 73.2605 56.1833 75.0042C57.927 76.748 60.1488 77.9356 62.5675 78.4167C64.9862 78.8978 67.4932 78.6509 69.7716 77.7071C72.0499 76.7634 73.9973 75.1652 75.3674 73.1148C76.7375 71.0643 77.4688 68.6536 77.4688 66.1875C77.4688 62.8806 76.1551 59.7091 73.8167 57.3708C71.4784 55.0324 68.3069 53.7188 65 53.7188ZM65 75.0938C63.2385 75.0938 61.5166 74.5714 60.052 73.5928C58.5873 72.6141 57.4458 71.2232 56.7717 69.5958C56.0976 67.9684 55.9212 66.1776 56.2649 64.45C56.6085 62.7223 57.4568 61.1354 58.7023 59.8898C59.9479 58.6443 61.5348 57.796 63.2625 57.4524C64.9901 57.1087 66.7809 57.2851 68.4083 57.9592C70.0357 58.6333 71.4266 59.7748 72.4053 61.2395C73.3839 62.7041 73.9062 64.426 73.9062 66.1875C73.9062 68.5496 72.9679 70.8149 71.2977 72.4852C69.6274 74.1554 67.3621 75.0938 65 75.0938Z" fill="white"/>
</svg>
