<svg width="130" height="130" viewBox="0 0 130 130" fill="none" xmlns="http://www.w3.org/2000/svg">
<g clip-path="url(#clip0_335_28)">
<path d="M65 130C100.899 130 130 100.899 130 65C130 29.1015 100.899 0 65 0C29.1015 0 0 29.1015 0 65C0 100.899 29.1015 130 65 130Z" fill="#EAE7EE"/>
<mask id="mask0_335_28" style="mask-type:alpha" maskUnits="userSpaceOnUse" x="27" y="27" width="76" height="76">
<mask id="mask1_335_28" style="mask-type:alpha" maskUnits="userSpaceOnUse" x="27" y="27" width="76" height="76">
<path d="M102.5 27.5H27.5V102.5H102.5V27.5Z" fill="#D9D9D9"/>
</mask>
<g mask="url(#mask1_335_28)">
<path d="M65 147.5C85.7107 147.5 102.5 130.711 102.5 110C102.5 89.2893 85.7107 72.5 65 72.5C44.2893 72.5 27.5 89.2893 27.5 110C27.5 130.711 44.2893 147.5 65 147.5Z" fill="#98959E"/>
<path d="M65 65C75.3553 65 83.75 56.6053 83.75 46.25C83.75 35.8947 75.3553 27.5 65 27.5C54.6447 27.5 46.25 35.8947 46.25 46.25C46.25 56.6053 54.6447 65 65 65Z" fill="#98959E"/>
</g>
</mask>
<g mask="url(#mask0_335_28)">
<path d="M65 123.5C97.3087 123.5 123.5 97.3087 123.5 65C123.5 32.6913 97.3087 6.5 65 6.5C32.6913 6.5 6.5 32.6913 6.5 65C6.5 97.3087 32.6913 123.5 65 123.5Z" fill="#98959E"/>
</g>
</g>
<defs>
<clipPath id="clip0_335_28">
<rect width="130" height="130" fill="white"/>
</clipPath>
</defs>
</svg>
