<svg width="43" height="43" viewBox="0 0 43 43" fill="none" xmlns="http://www.w3.org/2000/svg">
<path d="M37.6252 12.5417C37.6422 12.4168 37.6422 12.2903 37.6252 12.1654C37.6096 12.0602 37.5795 11.9577 37.5356 11.8608C37.4883 11.7733 37.4344 11.6894 37.3744 11.61C37.3062 11.4967 37.2217 11.394 37.1236 11.3054L36.9086 11.18C36.8051 11.1029 36.6903 11.0424 36.5681 11.0008H36.2098C36.1006 10.8951 35.9731 10.8101 35.8336 10.75H26.8752C26.4 10.75 25.9443 10.9388 25.6083 11.2748C25.2723 11.6108 25.0836 12.0665 25.0836 12.5417C25.0836 13.0168 25.2723 13.4726 25.6083 13.8086C25.9443 14.1446 26.4 14.3333 26.8752 14.3333H31.9456L24.779 22.7721L17.039 18.1675C16.6724 17.9495 16.24 17.8694 15.8196 17.9416C15.3992 18.0139 15.0184 18.2337 14.7456 18.5617L5.78731 29.3117C5.63645 29.4927 5.52278 29.7017 5.45283 29.9268C5.38287 30.1518 5.358 30.3885 5.37964 30.6231C5.40127 30.8578 5.46899 31.0859 5.57891 31.2943C5.68884 31.5028 5.8388 31.6875 6.02022 31.8379C6.34257 32.105 6.74826 32.2508 7.16689 32.25C7.43011 32.2504 7.69018 32.1929 7.92862 32.0814C8.16707 31.9699 8.37802 31.8072 8.54647 31.605L16.5194 22.0375L24.1698 26.6242C24.5327 26.8394 24.9599 26.9197 25.3761 26.8508C25.7923 26.782 26.171 26.5685 26.4452 26.2479L34.0419 17.3792V21.5C34.0419 21.9752 34.2307 22.4309 34.5667 22.7669C34.9027 23.1029 35.3584 23.2917 35.8336 23.2917C36.3087 23.2917 36.7645 23.1029 37.1005 22.7669C37.4365 22.4309 37.6252 21.9752 37.6252 21.5V12.5417Z" fill="#939393"/>
</svg>
