<svg width="28" height="28" viewBox="0 0 28 28" fill="none" xmlns="http://www.w3.org/2000/svg">
<g clip-path="url(#clip0_1616_689)">
<path d="M14 8.4L21.4667 12.1333V27.0667H6.53333V12.1333L14 8.4ZM14 8.4V0M0 27.0667H28M2.8 27.0667V15.8667H6.53333M25.2 27.0667V15.8667H21.4667M12.1333 27.0667V21.4667H15.8667V27.0667M14 0.933333H19.6V4.66667H14M14 17.7333C13.5049 17.7333 13.0301 17.5367 12.6801 17.1866C12.33 16.8365 12.1333 16.3617 12.1333 15.8667C12.1333 15.3716 12.33 14.8968 12.6801 14.5467C13.0301 14.1967 13.5049 14 14 14C14.4951 14 14.9699 14.1967 15.3199 14.5467C15.67 14.8968 15.8667 15.3716 15.8667 15.8667C15.8667 16.3617 15.67 16.8365 15.3199 17.1866C14.9699 17.5367 14.4951 17.7333 14 17.7333Z" stroke="black"/>
</g>
<defs>
<clipPath id="clip0_1616_689">
<rect width="28" height="28" fill="white"/>
</clipPath>
</defs>
</svg>
