<svg width="128" height="128" viewBox="0 0 128 128" fill="none" xmlns="http://www.w3.org/2000/svg">
<path d="M91.5598 50.3799L105.91 95.3199L69.5498 90.6099L91.5598 50.3799Z" fill="#996228"/>
<path d="M105.91 96.5002C105.86 96.5002 105.81 96.5002 105.76 96.4902L69.3895 91.7802C68.9995 91.7302 68.6695 91.4902 68.4895 91.1402C68.3095 90.7902 68.3195 90.3802 68.4995 90.0402L90.5195 49.8102C90.7495 49.4002 91.2095 49.1602 91.6695 49.2002C92.1395 49.2402 92.5395 49.5602 92.6795 50.0102L106.92 94.6302C107.06 94.8202 107.14 95.0602 107.14 95.3102C107.14 95.9602 106.61 96.4902 105.96 96.4902C105.96 96.5002 105.93 96.5002 105.91 96.5002ZM71.3995 89.6602L104.22 93.9102L91.2795 53.3602L71.3995 89.6602ZM40.1895 34.9102C40.1895 36.3583 39.6143 37.747 38.5903 38.771C37.5664 39.7949 36.1776 40.3702 34.7295 40.3702C31.7195 40.3702 29.2695 37.9202 29.2695 34.9102C29.2695 31.8902 31.7095 29.4502 34.7295 29.4502C37.7495 29.4502 40.1895 31.8902 40.1895 34.9102Z" fill="#996228"/>
<path d="M34.7298 41.5398C32.9696 41.5371 31.2822 40.8367 30.0376 39.592C28.7929 38.3474 28.0925 36.66 28.0898 34.8998C28.0925 33.1395 28.7929 31.4522 30.0376 30.2075C31.2822 28.9628 32.9696 28.2624 34.7298 28.2598C36.4901 28.2624 38.1774 28.9628 39.4221 30.2075C40.6668 31.4522 41.3672 33.1395 41.3698 34.8998C41.3672 36.66 40.6668 38.3474 39.4221 39.592C38.1774 40.8367 36.4901 41.5371 34.7298 41.5398ZM34.7298 30.6298C32.3698 30.6298 30.4498 32.5498 30.4498 34.9098C30.4498 37.2698 32.3698 39.1898 34.7298 39.1898C37.0898 39.1898 39.0198 37.2698 39.0198 34.9098C39.0198 32.5498 37.0898 30.6298 34.7298 30.6298ZM93.5798 29.4498C96.5899 29.6298 98.8898 32.2198 98.7098 35.2298C98.5398 38.2398 95.9398 40.5298 92.9398 40.3598C92.2238 40.3187 91.5229 40.1368 90.8773 39.8244C90.2317 39.512 89.6541 39.0753 89.1775 38.5393C88.701 38.0033 88.3349 37.3785 88.1002 36.7008C87.8655 36.0231 87.7668 35.3057 87.8098 34.5898C87.9898 31.5698 90.5699 29.2698 93.5798 29.4498Z" fill="#996228"/>
<path d="M93.2598 41.5395L92.8698 41.5295C91.0998 41.4295 89.4698 40.6395 88.2999 39.3195C87.7188 38.6691 87.2721 37.9101 86.9855 37.0863C86.6989 36.2625 86.578 35.3902 86.6298 34.5195C86.731 32.8293 87.4734 31.2413 88.7055 30.0798C89.9376 28.9183 91.5666 28.2708 93.2598 28.2695L93.6498 28.2795C97.3098 28.4995 100.11 31.6595 99.8898 35.3095C99.7859 36.997 99.042 38.5812 97.81 39.739C96.5779 40.8967 94.9505 41.5407 93.2598 41.5395ZM93.4898 30.6195C90.9898 30.6195 89.1198 32.3895 88.9898 34.6495C88.9198 35.7895 89.2998 36.8895 90.0598 37.7495C90.8198 38.6095 91.8598 39.1095 93.0098 39.1795L93.2598 39.1895C95.5198 39.1895 97.3998 37.4195 97.5298 35.1595C97.6698 32.7995 95.8598 30.7695 93.4998 30.6195H93.4898ZM36.4298 50.3795L22.0898 95.3195L58.4498 90.6095L36.4298 50.3795Z" fill="#996228"/>
<path d="M22.0898 96.4994C21.7498 96.4994 21.4098 96.3494 21.1798 96.0794C20.9198 95.7694 20.8398 95.3494 20.9598 94.9694L35.2998 50.0294C35.4398 49.5794 35.8398 49.2594 36.3098 49.2194C36.8198 49.1694 37.2298 49.4094 37.4598 49.8294L59.4798 90.0594C59.6598 90.3994 59.6698 90.8094 59.4898 91.1594C59.3198 91.5094 58.9798 91.7394 58.5898 91.7994L22.2298 96.5094C22.1898 96.4994 22.1398 96.4994 22.0898 96.4994ZM36.7198 53.3594L23.7698 93.9194L56.5898 89.6694L36.7198 53.3594Z" fill="#996228"/>
<path d="M72.1705 28.7598C72.1705 33.2698 68.5105 36.9298 64.0005 36.9298C59.4905 36.9298 55.8205 33.2698 55.8205 28.7598C55.8205 24.2398 59.4805 20.5898 64.0005 20.5898C68.5205 20.5898 72.1705 24.2398 72.1705 28.7598ZM13.4505 34.9098C13.4505 38.4898 10.5505 41.3898 6.96047 41.3898C3.38047 41.3898 0.480469 38.4898 0.480469 34.9098C0.480469 31.3198 3.38047 28.4198 6.96047 28.4198C10.5505 28.4198 13.4505 31.3198 13.4505 34.9098ZM114.54 34.9098C114.54 38.4898 117.44 41.3898 121.03 41.3898C124.61 41.3898 127.52 38.4898 127.52 34.9098C127.52 33.1886 126.837 31.5378 125.62 30.3207C124.402 29.1036 122.752 28.4198 121.03 28.4198C119.309 28.4198 117.658 29.1036 116.441 30.3207C115.224 31.5378 114.54 33.1886 114.54 34.9098Z" fill="#E3A080"/>
<path d="M72.1705 28.7598C72.1705 33.2698 68.5105 36.9298 64.0005 36.9298C59.4905 36.9298 55.8205 33.2698 55.8205 28.7598C55.8205 24.2398 59.4805 20.5898 64.0005 20.5898C68.5205 20.5898 72.1705 24.2398 72.1705 28.7598ZM13.4505 34.9098C13.4505 38.4898 10.5505 41.3898 6.96047 41.3898C3.38047 41.3898 0.480469 38.4898 0.480469 34.9098C0.480469 31.3198 3.38047 28.4198 6.96047 28.4198C10.5505 28.4198 13.4505 31.3198 13.4505 34.9098ZM114.54 34.9098C114.54 38.4898 117.44 41.3898 121.03 41.3898C124.61 41.3898 127.52 38.4898 127.52 34.9098C127.52 33.1886 126.837 31.5378 125.62 30.3207C124.402 29.1036 122.752 28.4198 121.03 28.4198C119.309 28.4198 117.658 29.1036 116.441 30.3207C115.224 31.5378 114.54 33.1886 114.54 34.9098Z" fill="#E3A080"/>
<path d="M119.5 53.4302C119.287 53.3355 119.051 53.3058 118.822 53.345C118.592 53.3841 118.379 53.4903 118.21 53.6502L87.2501 82.7102L65.1601 49.7202C64.9401 49.3902 64.5801 49.2002 64.1801 49.2002C63.7901 49.2002 63.4201 49.3902 63.2001 49.7102L41.0101 82.7102L10.0601 53.6402C9.89079 53.4803 9.67795 53.3741 9.4484 53.335C9.21885 53.2958 8.98284 53.3255 8.77011 53.4202C8.34011 53.6102 8.06011 54.0502 8.08011 54.5202L9.35011 102.04C9.35011 112.37 33.4101 120.47 64.1301 120.47C94.8501 120.47 118.91 112.37 118.91 102.07L120.18 54.5202C120.2 54.0602 119.93 53.6202 119.5 53.4302Z" fill="#E3A080"/>
<mask id="mask0_2127_795" style="mask-type:luminance" maskUnits="userSpaceOnUse" x="8" y="49" width="113" height="72">
<path d="M119.5 53.4302C119.287 53.3355 119.051 53.3058 118.822 53.345C118.592 53.3841 118.379 53.4903 118.21 53.6502L87.2501 82.7102L65.1601 49.7202C64.9401 49.3902 64.5801 49.2002 64.1801 49.2002C63.7901 49.2002 63.4201 49.3902 63.2001 49.7102L41.0101 82.7102L10.0601 53.6402C9.89079 53.4803 9.67795 53.3741 9.4484 53.335C9.21885 53.2958 8.98284 53.3255 8.77011 53.4202C8.34011 53.6102 8.06011 54.0502 8.08011 54.5202L9.35011 102.04C9.35011 112.37 33.4101 120.47 64.1301 120.47C94.8501 120.47 118.91 112.37 118.91 102.07L120.18 54.5202C120.2 54.0602 119.93 53.6202 119.5 53.4302Z" fill="white"/>
</mask>
<g mask="url(#mask0_2127_795)">
<path d="M119.91 78.0606L119.92 78.0706L119.33 96.9206H119.32C115.12 96.7906 111.86 92.4706 112.02 87.2606C112.18 82.0406 115.71 77.9306 119.91 78.0606ZM8.37035 78.0606L8.36035 78.0706L8.94035 96.9206H8.96035C13.1504 96.7906 16.4204 92.4706 16.2504 87.2606C16.0904 82.0406 12.5604 77.9306 8.37035 78.0606Z" fill="#E95B93"/>
</g>
<path d="M72.7997 96.5504C72.7997 102.13 68.9197 106.66 64.1297 106.66C59.3497 106.66 55.4697 102.13 55.4697 96.5504C55.4697 90.9604 59.3497 86.4404 64.1297 86.4404C68.9197 86.4304 72.7997 90.9604 72.7997 96.5504Z" fill="#E95B93"/>
<path d="M89.9005 102.14C89.7705 104.84 87.7805 106.93 85.4605 106.82C83.1505 106.71 81.3805 104.42 81.5205 101.73C81.6605 99.0198 83.6505 96.9298 85.9605 97.0498C88.2705 97.1498 90.0305 99.4398 89.9005 102.14Z" fill="#996228"/>
<path d="M107.23 99.1803C107.371 96.4833 105.607 94.199 103.291 94.0781C100.974 93.9573 98.9825 96.0456 98.8417 98.7426C98.701 101.44 100.465 103.724 102.781 103.845C105.098 103.966 107.09 101.877 107.23 99.1803Z" fill="#996228"/>
<path d="M38.3691 102.14C38.4991 104.84 40.4891 106.93 42.8091 106.82C45.1191 106.71 46.8891 104.42 46.7491 101.73C46.6191 99.0198 44.6291 96.9298 42.3191 97.0498C39.9991 97.1498 38.2291 99.4398 38.3691 102.14Z" fill="#996228"/>
<path d="M25.484 103.834C27.7949 103.713 29.5542 101.429 29.4135 98.7318C29.2727 96.0348 27.2853 93.9462 24.9743 94.0668C22.6634 94.1874 20.9041 96.4715 21.0449 99.1685C21.1856 101.866 23.173 103.954 25.484 103.834Z" fill="#996228"/>
</svg>
