<svg width="272" height="127" viewBox="0 0 272 127" fill="none" xmlns="http://www.w3.org/2000/svg">
<g filter="url(#filter0_d_2569_825)">
<rect x="4" y="4" width="260" height="115" rx="20" fill="white"/>
<rect x="4.5" y="4.5" width="259" height="114" rx="19.5" stroke="black" stroke-opacity="0.11"/>
</g>
<g clip-path="url(#clip0_2569_825)">
<path d="M34.2194 25.6796C34.2194 25.6796 34.4045 24.6789 34.7725 24.0999C35.1405 23.521 35.7475 22.8624 35.9303 22.9421C36.1155 23.0218 36.2983 23.7578 36.985 25.2343C37.6717 26.7109 38.8295 28.7101 38.8014 30.0273C38.7733 31.3445 38.2741 32.0031 38.2741 32.0031C38.2741 32.0031 36.8561 34.3445 34.1725 34.1265C31.9928 33.9507 31.0201 33.2218 29.8248 32.5867C29.3256 32.3218 28.7116 32.2937 28.66 32.0289C28.6084 31.7664 28.9178 31.3374 29.1616 31.0539C29.5717 30.5757 30.4412 30.2851 30.7858 29.6687C31.1303 29.0523 31.1326 28.1171 31.6905 27.332C32.7264 25.8812 34.2194 25.6796 34.2194 25.6796Z" fill="#E0E0E0"/>
<path d="M35.7888 25.2058C35.5755 25.1823 35.2872 25.7519 35.3294 26.1527C35.3716 26.5534 35.7161 27.1933 36.1052 28.0183C36.5646 28.9933 36.9067 30.3573 37.3403 30.2566C37.7716 30.1558 37.4271 28.8081 37.0544 27.7745C36.6771 26.7409 36.0606 25.2339 35.7888 25.2058ZM34.8372 30.2167C35.1864 30.048 35.0247 29.2839 34.7505 28.3511C34.4763 27.4183 34.3052 26.9753 33.7755 26.8722C33.2599 26.7714 32.9013 27.0737 32.6271 27.4605C32.3528 27.8472 32.1536 28.3066 32.1677 28.5644C32.1817 28.8222 32.2544 28.9956 32.6411 29.1527C32.8731 29.2464 33.2271 29.3589 33.5739 29.5839C33.9747 29.8417 34.4481 30.4019 34.8372 30.2167ZM30.5646 30.6855C30.1896 30.6855 29.5591 31.173 29.6739 31.5316C29.8028 31.9347 30.6747 31.9112 31.7106 32.1198C33.3466 32.4503 34.3427 32.8277 34.495 32.3495C34.5958 32.0331 33.2763 31.5034 32.4724 31.2292C31.87 31.0277 31.0239 30.6855 30.5646 30.6855Z" fill="white"/>
<path d="M47.1548 41.1366C46.0181 42.3483 45.4275 44.0687 46.5455 46.1171C47.4197 47.7155 48.5728 48.278 49.283 49.4148C49.9931 50.5515 49.9088 51.2452 50.0916 51.2288C50.272 51.2124 50.8509 50.6358 51.1463 50.0077C51.4439 49.3819 51.3267 48.8194 51.6244 48.4585C51.922 48.0976 52.9111 48.046 53.4877 47.3546C54.0642 46.6632 53.9822 46.0843 54.5095 45.5405C55.0369 44.9968 55.8127 44.8304 56.34 44.221C56.8673 43.6116 57.3455 42.8358 57.2306 42.6554C57.1158 42.4749 56.7033 42.5733 55.4822 42.2101C54.2611 41.8468 51.8048 40.2648 49.9744 40.1335C48.6877 40.0398 47.8978 40.3468 47.1548 41.1366Z" fill="#E0E0E0"/>
<path d="M49.0336 41.5516C48.8438 41.8868 50.7375 42.3016 51.7711 42.9579C52.8047 43.6141 53.3813 44.2352 53.775 44.2352C54.1688 44.2352 55.1836 43.6633 55.1016 43.2532C55.0196 42.843 54.3539 42.8547 54.0657 42.768C53.7399 42.6672 52.3172 41.9875 51.8274 41.7719C51.1196 41.4555 49.3383 41.0149 49.0336 41.5516ZM48.9329 43.0657C48.7407 43.2813 49.2961 43.879 50.2664 44.9149C51.3188 46.0399 51.8204 46.4243 52.2797 45.9672C52.6969 45.55 52.3524 45.0602 51.4993 44.418C50.8782 43.9493 49.1602 42.8125 48.9329 43.0657ZM48.5696 44.8657C48.2649 44.9758 48.8602 46.4711 49.0594 47.1133C49.2586 47.7579 49.6407 48.5641 50.0391 48.5641C50.4375 48.5641 50.8196 48.0743 50.7563 47.575C50.693 47.0758 49.8657 46.1993 49.6407 45.925C49.3219 45.536 48.7688 44.793 48.5696 44.8657Z" fill="white"/>
<path d="M37.1626 32.5046C35.6462 34.0796 35.14 35.6874 35.3111 37.8881C35.5337 40.7171 38.6181 44.3006 42.3353 44.2186C45.3353 44.153 47.0439 42.6483 47.822 41.5538C48.5392 40.546 49.5306 38.9827 49.2798 36.6038C48.9798 33.7491 46.0079 30.3319 42.4243 30.3108C39.5603 30.2921 38.3275 31.2952 37.1626 32.5046Z" fill="#FF5960"/>
<path d="M37.568 34.6564C36.532 36.9274 35.2969 37.6681 35.2969 37.6681C35.2969 37.6681 35.3203 38.1321 35.4141 38.561C35.5242 39.065 35.7 39.4634 35.7 39.4634C35.7 39.4634 37.0242 38.486 37.8398 37.0681C38.7258 35.5282 39.293 34.2251 39.5156 33.0626C39.7383 31.9001 39.8367 30.6673 39.8367 30.6673C39.8367 30.6673 39.4453 30.7892 38.9766 31.0329C38.6039 31.2274 38.4164 31.3821 38.4164 31.3821C38.4164 31.3821 38.4328 32.7626 37.568 34.6564ZM41.4398 30.3509C41.4398 30.3509 41.6156 31.3095 41.1656 33.1399C40.9477 34.0259 40.5891 35.1884 39.9844 36.4728C39.443 37.6259 38.9227 38.4485 38.4703 39.1306C37.4086 40.736 36.6773 41.1907 36.6773 41.1907C36.6773 41.1907 36.9141 41.5189 37.1555 41.7814C37.3969 42.0439 37.7109 42.3298 37.7109 42.3298C37.7109 42.3298 38.9531 41.6525 40.5961 38.7087C42.2391 35.7649 42.6797 33.9228 42.8578 32.6618C43.0383 31.4009 43.0078 30.3439 43.0078 30.3439C43.0078 30.3439 42.5883 30.3064 42.2273 30.3087C41.7797 30.311 41.4398 30.3509 41.4398 30.3509ZM44.6484 30.7634C44.6484 30.7634 44.543 34.4782 42.8977 37.7243C41.3672 40.7431 39.007 43.2978 39.007 43.2978C39.007 43.2978 39.3352 43.511 39.7711 43.7009C40.268 43.9165 40.6945 44.015 40.6945 44.015C40.6945 44.015 41.2313 43.5228 42.0258 42.386C42.6914 41.4298 43.6547 40.0774 44.5125 38.1204C45.2133 36.5243 45.5156 35.3079 45.7547 34.272C46.1367 32.6196 46.0781 31.5485 46.0781 31.5485C46.0781 31.5485 45.818 31.3376 45.3867 31.1103C44.9672 30.8853 44.6484 30.7634 44.6484 30.7634ZM47.5242 32.8587C47.5242 32.8587 47.4328 35.3853 45.8086 39.0556C45.1781 40.4782 44.6273 41.3853 44.093 42.1634C43.1063 43.5978 42.3352 44.2189 42.3352 44.2189C42.3352 44.2189 42.9891 44.1978 43.507 44.1157C44.0813 44.0243 44.5313 43.8767 44.5313 43.8767C44.5313 43.8767 45.8367 42.5454 47.0766 39.8056C48.2672 37.1759 48.6656 34.5673 48.6656 34.5673C48.6656 34.5673 48.4898 34.1548 48.157 33.672C47.8992 33.297 47.5242 32.8587 47.5242 32.8587Z" fill="#FE7C84"/>
<path d="M41.0552 31.8247C39.7802 32.1036 38.4887 32.999 38.1653 33.8076C37.8372 34.6279 38.402 35.0357 38.9622 34.8646C39.5223 34.6911 40.277 33.8826 41.4841 33.6669C42.6911 33.4513 43.7153 33.5708 44.2216 33.7091C44.7278 33.8474 45.1427 33.8076 45.2481 33.4185C45.3489 33.0482 45.1473 32.549 44.2966 32.113C43.3591 31.6349 41.9927 31.6208 41.0552 31.8247Z" fill="white"/>
<path opacity="0.5" d="M49.2822 36.6038C48.9822 33.7491 46.0103 30.3319 42.4267 30.3108C39.5603 30.2921 38.3275 31.2975 37.1626 32.5069C35.6462 34.0819 35.14 35.6897 35.3111 37.8905C35.5337 40.7194 38.6181 44.303 42.3353 44.221C45.3353 44.1553 47.0439 42.6507 47.822 41.5561C48.5415 40.546 49.5329 38.9827 49.2822 36.6038ZM47.0462 40.9702C46.3712 41.9171 44.8947 43.2202 42.2978 43.2764C39.0822 43.3467 36.4126 40.246 36.2181 37.7967C36.0681 35.8936 36.5064 34.5014 37.8189 33.1374C38.8267 32.0897 39.8931 31.2225 42.3728 31.2389C45.4736 31.2577 48.047 34.2155 48.3048 36.6858C48.5251 38.746 47.665 40.0983 47.0462 40.9702Z" fill="white"/>
</g>
<path d="M55.4854 78.1624C55.4978 78.0712 55.4978 77.9787 55.4854 77.8875C55.474 77.8107 55.452 77.7358 55.4199 77.665C55.3854 77.601 55.346 77.5398 55.3021 77.4818C55.2523 77.399 55.1906 77.324 55.1189 77.2593L54.9618 77.1676C54.8863 77.1113 54.8024 77.0671 54.7132 77.0368H54.4514C54.3716 76.9595 54.2785 76.8974 54.1765 76.8535H47.6323C47.2852 76.8535 46.9523 76.9914 46.7068 77.2369C46.4613 77.4823 46.3234 77.8152 46.3234 78.1624C46.3234 78.5095 46.4613 78.8424 46.7068 79.0879C46.9523 79.3333 47.2852 79.4712 47.6323 79.4712H51.3363L46.1009 85.6359L40.4467 82.2721C40.1789 82.1129 39.8631 82.0543 39.556 82.1071C39.2489 82.1599 38.9707 82.3205 38.7714 82.5601L32.2272 90.4132C32.117 90.5454 32.0339 90.6981 31.9828 90.8625C31.9317 91.0269 31.9136 91.1998 31.9294 91.3712C31.9452 91.5426 31.9946 91.7093 32.0749 91.8615C32.1552 92.0138 32.2648 92.1488 32.3973 92.2586C32.6328 92.4538 32.9292 92.5603 33.235 92.5597C33.4273 92.56 33.6173 92.5179 33.7914 92.4365C33.9656 92.3551 34.1197 92.2362 34.2428 92.0885L40.0672 85.0993L45.6559 88.4499C45.921 88.6071 46.2331 88.6658 46.5372 88.6155C46.8412 88.5652 47.1178 88.4092 47.3182 88.175L52.8677 81.6962V84.7066C52.8677 85.0537 53.0056 85.3866 53.251 85.6321C53.4965 85.8775 53.8294 86.0154 54.1765 86.0154C54.5237 86.0154 54.8566 85.8775 55.102 85.6321C55.3475 85.3866 55.4854 85.0537 55.4854 84.7066V78.1624Z" fill="#939393"/>
<rect x="167" y="8" width="2" height="8" rx="1" fill="#D9D9D9"/>
<rect x="167" y="18" width="2" height="8" rx="1" fill="#D9D9D9"/>
<rect x="167" y="28" width="2" height="8" rx="1" fill="#D9D9D9"/>
<rect x="167" y="38" width="2" height="8" rx="1" fill="#D9D9D9"/>
<rect x="167" y="48" width="2" height="8" rx="1" fill="#D9D9D9"/>
<rect x="167" y="58" width="2" height="8" rx="1" fill="#D9D9D9"/>
<rect x="167" y="68" width="2" height="8" rx="1" fill="#D9D9D9"/>
<rect x="167" y="78" width="2" height="8" rx="1" fill="#D9D9D9"/>
<rect x="167" y="88" width="2" height="8" rx="1" fill="#D9D9D9"/>
<rect x="167" y="98" width="2" height="8" rx="1" fill="#D9D9D9"/>
<rect x="167" y="108" width="2" height="8" rx="1" fill="#D9D9D9"/>
<defs>
<filter id="filter0_d_2569_825" x="0" y="0" width="272" height="127" filterUnits="userSpaceOnUse" color-interpolation-filters="sRGB">
<feFlood flood-opacity="0" result="BackgroundImageFix"/>
<feColorMatrix in="SourceAlpha" type="matrix" values="0 0 0 0 0 0 0 0 0 0 0 0 0 0 0 0 0 0 127 0" result="hardAlpha"/>
<feOffset dx="2" dy="2"/>
<feGaussianBlur stdDeviation="3"/>
<feComposite in2="hardAlpha" operator="out"/>
<feColorMatrix type="matrix" values="0 0 0 0 0 0 0 0 0 0 0 0 0 0 0 0 0 0 0.14 0"/>
<feBlend mode="normal" in2="BackgroundImageFix" result="effect1_dropShadow_2569_825"/>
<feBlend mode="normal" in="SourceGraphic" in2="effect1_dropShadow_2569_825" result="shape"/>
</filter>
<clipPath id="clip0_2569_825">
<rect width="30" height="30" fill="white" transform="translate(28 22)"/>
</clipPath>
</defs>
</svg>
